# xmcd
#
# Track frame offsets:
#	150
#	20816
#	39839
#	56715
#	77432
#	97273
#	115897
#	133501
#	154901
#	176205
#	197071
#	215759
#	233998
#
# Disc length: 3412 seconds
#
# Revision: 9
# Processed by: cddbd v1.5.2PL0 Copyright (c) Steve Scherf et al.
# Submitted via: EasyCDDAExtractor 15.3.0.1
#
DISCID=b90d520d
DTITLE=Jerry Rivera
DYEAR=2001
DGENRE=Latin
TTITLE0=Quiero
TTITLE1=Tu
TTITLE2=Fingir
TTITLE3=Caramelito
TTITLE4=Y Se Escapo El Amor
TTITLE5=Muero
TTITLE6=Vuelve
TTITLE7=Que Queda De Nuestro Amor
TTITLE8=Volveras
TTITLE9=Un Beso De Quien Amas
TTITLE10=Una Señal
TTITLE11=Porque Tu
TTITLE12=Quiero (Version Salsa)
EXTD=YEAR: 2001 ID3G: 86
EXTT0=
EXTT1=
EXTT2=
EXTT3=
EXTT4=
EXTT5=
EXTT6=
EXTT7=
EXTT8=
EXTT9=
EXTT10=
EXTT11=
EXTT12=
PLAYORDER=
